<svg xmlns="http://www.w3.org/2000/svg" width="420.933" height="77.5" viewBox="0 0 420.933 77.5">
  <g id="Group_2069" data-name="Group 2069" transform="translate(-2327.632 -1182)">
    <g id="Group_2068" data-name="Group 2068" transform="translate(3164.632 972)">
      <g id="Group_2061" data-name="Group 2061" transform="translate(-837 210)">
        <path id="Path_14" data-name="Path 14" d="M-805.09,251.955c7.637-8.659,8.544-20.521,15.113-29.429,3.188-5.326,6.854-9.975,12.818-11.357-17.206-2.8-32.761-.656-46.323,7.471-13.83,8.372-18.092,22.714-7.87,34.667C-821.576,262.116-810.09,257.624-805.09,251.955Z" transform="translate(837 -210)" fill="#e50019"/>
        <path id="Path_15" data-name="Path 15" d="M-639.143,464.487c-9.775-8.808-21.261-4.316-26.261,1.353-7.637,8.659-8.544,20.521-15.113,29.429-3.188,5.326-6.854,9.975-12.818,11.357,17.206,2.8,32.761.656,46.322-7.471C-633.182,490.781-628.921,476.44-639.143,464.487Z" transform="translate(710.164 -430.294)" fill="#e50019"/>
      </g>
      <g id="Group_2062" data-name="Group 2062" transform="translate(-748.645 223.863)">
        <path id="Path_16" data-name="Path 16" d="M842.371,759.913h-1.422a3.273,3.273,0,0,0-2.979,2.055l-.893,2.821a1.554,1.554,0,0,0,1.679,2.055h1.422a3.273,3.273,0,0,0,2.979-2.055l.893-2.821A1.554,1.554,0,0,0,842.371,759.913Z" transform="translate(-729.247 -709.358)" fill="#e50019"/>
        <path id="Path_17" data-name="Path 17" d="M-9.053,353.917c1.412-9.365-6.279-14.555-19.62-17.153l2.345-5.071c.727-1.713-.02-3.109-2.73-3.324-2.87-.2-4.341.7-5.224,2.612l-2.2,4.81-.118-.015c-18.14-.462-37.3,5.051-37.774,17.862-.357,7.065,4.773,10.579,10.175,11.109,2.961.815,7.861-2.751,1.5-5.665-2.7-1.191-4.312-3.073-4-6.331.983-6.522,14.138-11.786,27.491-11.5l.213.015L-51.257,368.02c-2.664,6.035-6.971,10.947-13.652,11.159-4.844-.1-8.368-2.133-10.209-7-1.667-4.575-9.139-1.662-7.36,3.205,2.6,6.731,8.666,10.533,17.332,10.447,10.981-.266,17.962-7.42,21.962-17.688l12.17-26.311.136.01c8.946,1.935,15.11,5.115,13.746,11.663-1.373,5.263-5.622,7.753-15,4.915-2.368-.936-6.36,2.472-2.639,4.893C-26.492,368.165-11.474,364.92-9.053,353.917Z" transform="translate(82.751 -328.341)" fill="#e50019"/>
        <path id="Path_18" data-name="Path 18" d="M720.886,481.491l-19.565.017c-.728-.063-1.056-.7-.563-1.016l12.487-9c1.576-1.141,1.14-3.915-.645-4.995a15.281,15.281,0,0,0-8.535-1.8c-8.134.24-14.956,4.235-15.542,10.328a8.112,8.112,0,0,0,2.1,5.874c-.12.445-.57.55-1.136.558H674.893c-4.5-.194-7.341-2.254-7.269-6.057.322-5.336,7.291-7.5,13.441-5.192,3.292,1.394,5.755-2.587,2.711-3.98a17.079,17.079,0,0,0-7.211-1.558c-8.423.115-15.405,4.279-15.637,10.384a8.206,8.206,0,0,0,2.494,6.336H651.9c-.809.027-1.033-.8-.6-1.746l3.8-8.453c1.546-4.132-1.1-6.392-5.658-6.76a14.074,14.074,0,0,0-8.186,1.975l4.34-9.931c2.04-5.055-5.111-6.546-6.822-2.043l-11.585,24.883c-.581,1.295-1.2,2.236-2.375,2.275h-7.462c-1.23-.046-1.384-.832-.878-1.939l6.266-12.53c-3.485-2.013-8.039-2.637-12.891-2.871-8.7.226-15.281,4.264-16.844,10.845a7.3,7.3,0,0,0,2.292,6.377H582.916a10.97,10.97,0,0,0,4.841-7.41c.829-6.89-4.346-9.676-9.184-9.9a12.244,12.244,0,0,0-6.284,1.128l4.045-8.91c1.823-4.711-5.047-6.013-6.743-2.756l-12.51,26.441c-.471.887-.977,1.449-1.739,1.449H548.1c-.918-.02-1.1-.645-.724-1.449l6.423-12.9a28.009,28.009,0,0,0-15.117-2.8c-8.53,1.168-13.578,5.529-14.656,11.59-.089,2.92.659,3.851,2.1,5.478h-9.847a4.364,4.364,0,0,0,.875-2.235c.216-2.426-1.694-4.25-5.74-5.522-2.611-.927-4.659-2.008-4.675-3.638.052-1.43,1.318-2.36,3.413-2.41a6,6,0,0,1,4.829,2.144c1.685,1.454,3.915,1.21,4.789.02a2.823,2.823,0,0,0-.776-3.6c-2.346-2.31-4.609-2.741-8.58-2.762-5.689.011-9.786,2-10.166,6.606-.082,2.783,1.661,4.83,4.839,6.048,2.872.794,4.825,1.834,4.758,3.416-.19,1.667-1.808,2.719-4,2.786-2.906-.166-4.574-1.689-6.749-3.843-1.164-1.2-4.56-.263-4.613,1.292-.017.518.557,1.15.955,1.883h-9.549c-.928-.018-.964-.693-.757-1.162l6.783-13.288c-3.457-2.038-9.087-3.628-16.693-2.465-7.937,1.418-11.725,5.232-12.939,10.531-.429,2.129-.049,4.194,2.188,6.386v0l-.3-.039-8.034-.083c-4.009-.126-3.736,4.561-.661,4.822h18.867a6.159,6.159,0,0,0,5.281-2.519,6.68,6.68,0,0,0,5.041,2.519H493.4a4.21,4.21,0,0,0,4.22-2.336c1.785,1.676,4.075,2.321,6.909,2.336h30.766c2.344.022,4.533-.41,6.292-2.514a6.473,6.473,0,0,0,5.683,2.514h10.921a6.035,6.035,0,0,0,5.588-2.773,5,5,0,0,0,4.779,2.773h35.2a9.289,9.289,0,0,0,6.8-2.4c1.175,1.718,3.3,2.489,6.282,2.4h10.245c3.067-.073,5.351-1.1,6.713-3.737l3.648-7.355c1.53-4.456,6.616-5.688,8.882-5.663,1.54.017,1.5.907.644,2.563l-3.211,7.448c-1.682,3.862.416,6.695,4.577,6.744h13.85a6.718,6.718,0,0,0,4.585-1.919,10.212,10.212,0,0,0,6.237,1.919h17.038a9.113,9.113,0,0,0,5.43-2.086,8.863,8.863,0,0,0,6.168,2.086h19.11C723.619,486.277,723.688,481.468,720.886,481.491Zm-241.7-3.3c-1.276,2.138-2.736,3.552-5.25,3.545a4.889,4.889,0,0,1-4.912-4.951c.48-5.783,8.332-10.2,14.829-7.488Zm61.605,0c-1.276,2.138-2.735,3.552-5.25,3.545a4.89,4.89,0,0,1-4.912-4.951c.48-5.783,8.332-10.2,14.83-7.488Zm40.037-4.759c-1.731,10.879-16.529,10.38-13.646,3.15l2.332-5.255c1.04-2.138,3.888-2.854,6.4-2.847C578.795,468.612,581.088,470.044,580.828,473.43Zm28.941,4.759c-1.276,2.138-2.736,3.552-5.249,3.545a4.89,4.89,0,0,1-4.912-4.951c.48-5.783,8.332-10.2,14.83-7.488Zm88.436-7.946a11.3,11.3,0,0,1,8.468-1.17.656.656,0,0,1,.111,1.187l-9.9,7.651C693.553,476.191,694.934,472.328,698.2,470.244Z" transform="translate(-390.367 -437.294)" fill="#e50019"/>
        <path id="Path_19" data-name="Path 19" d="M2286.8,759.913h-1.422a3.273,3.273,0,0,0-2.98,2.055l-.893,2.821a1.554,1.554,0,0,0,1.679,2.055h1.422a3.273,3.273,0,0,0,2.979-2.055l.893-2.821A1.554,1.554,0,0,0,2286.8,759.913Z" transform="translate(-2004.475 -709.358)" fill="#e50019"/>
      </g>
    </g>
  </g>
</svg>
